<svg width="31" height="385" viewBox="0 0 31 385" fill="none" xmlns="http://www.w3.org/2000/svg">
<path d="M15.5 1L15.5 25" stroke="#2F7DC5" stroke-width="2" stroke-linecap="round"/>
<path d="M24.0391 51.3242C24.0391 48.8047 23.1953 46.6953 21.5312 44.9961C19.8555 43.2852 17.8164 42.4414 15.4023 42.4414C12.9883 42.4414 10.9375 43.2852 9.27344 44.9961C7.59766 46.6953 6.76562 48.8047 6.76562 51.3242C6.76562 52.168 6.88281 52.9883 7.11719 53.7852C7.35156 54.582 7.62109 55.2383 7.91406 55.7305C8.21875 56.2227 8.55859 56.6914 8.93359 57.1367C9.32031 57.582 9.58984 57.8633 9.74219 57.9922C9.89453 58.1211 10.0117 58.2148 10.1055 58.2734L11.793 56.5859L11.5 56.3984C11.3242 56.2578 11.1133 56.0352 10.8555 55.7305C10.5977 55.4258 10.3398 55.0859 10.082 54.6875C9.82422 54.2891 9.61328 53.7969 9.42578 53.1992C9.23828 52.6016 9.14453 51.9687 9.14453 51.3125C9.14453 49.5664 9.75391 48.0898 10.9609 46.8828C12.1797 45.6758 13.6562 45.0664 15.3906 45.0664C17.1367 45.0664 18.6133 45.6758 19.8203 46.8828C21.0273 48.1016 21.625 49.5781 21.625 51.3125C21.625 51.9687 21.543 52.6016 21.3555 53.1875C21.168 53.7734 20.9687 54.2539 20.7578 54.6172C20.5469 54.9922 20.2891 55.332 19.9961 55.6484C19.6914 55.9766 19.4922 56.1758 19.375 56.2695C19.2578 56.3633 19.1758 56.4219 19.1172 56.4687L20.8047 58.1445L21.1328 57.8867C21.3555 57.7109 21.625 57.4297 21.9414 57.043C22.2461 56.668 22.5625 56.2227 22.8906 55.707C23.207 55.1914 23.4766 54.5469 23.6992 53.7617C23.9219 52.9883 24.0391 52.168 24.0391 51.3242ZM12.7539 69.6758C11.6758 69.6758 10.7734 69.3125 10.0352 68.6094C9.28516 67.8945 8.92187 67.0508 8.92187 66.0781C8.92187 65.0937 9.28516 64.25 10.0352 63.5352C10.7734 62.8203 11.6758 62.4687 12.7539 62.4687C13.832 62.4687 14.7344 62.8203 15.4844 63.5352C16.2227 64.25 16.5977 65.0937 16.5977 66.0781C16.5977 67.0508 16.2227 67.8945 15.4844 68.6094C14.7344 69.3125 13.832 69.6758 12.7539 69.6758ZM12.7539 60.0781C11.1367 60.0781 9.74219 60.6641 8.54687 61.8594C7.35156 63.0547 6.75391 64.4609 6.75391 66.0781C6.75391 67.6953 7.35156 69.0898 8.54687 70.2852C9.74219 71.4805 11.1367 72.0781 12.7539 72.0781C14.3711 72.0781 15.7773 71.4805 16.9727 70.2852C18.168 69.0898 18.7656 67.6953 18.7656 66.0781C18.7656 64.4609 18.168 63.0547 16.9727 61.8594C15.7773 60.6641 14.3711 60.0781 12.7539 60.0781ZM7 74.7148L7 84.1953L4.11719 84.1953L4.11719 86.5977L9.15625 86.5977L9.15625 84.9219L18.5195 84.9219L18.5195 82.5195L9.15625 82.5195L9.15625 77.1172L18.5195 77.1172L18.5195 74.7148L7 74.7148ZM18.5195 97.3906L10.9609 91.3906L18.5195 91.3906L18.5195 88.9883L7 88.9883L7 91.1445L14.5586 97.1445L7 97.1445L7 99.5469L18.5195 99.5469L18.5195 97.3906ZM7 112.156L14.4414 112.156C15.6602 112.156 16.6797 111.699 17.5117 110.809C18.3437 109.906 18.7656 108.758 18.7656 107.352C18.7656 106.789 18.6836 106.238 18.5312 105.711C18.3789 105.184 18.2031 104.762 18.0156 104.445C17.8164 104.117 17.5937 103.812 17.3477 103.531C17.1016 103.25 16.9258 103.062 16.832 102.98C16.7383 102.898 16.6562 102.84 16.5977 102.793L15.0391 104.352L15.4492 104.668C15.707 104.855 15.9531 105.195 16.2109 105.687C16.4687 106.18 16.5977 106.742 16.5977 107.352C16.5977 108.055 16.3867 108.629 15.9766 109.074C15.5547 109.52 15.0508 109.754 14.4414 109.754L13.7148 105.547C13.5391 104.504 13.1289 103.684 12.4961 103.086C11.8516 102.488 11.0547 102.195 10.1055 102.195C9.23828 102.195 8.45312 102.582 7.77343 103.355C7.09375 104.129 6.7539 105.102 6.7539 106.273C6.7539 106.672 6.8125 107.059 6.90625 107.457C7.01172 107.844 7.1289 108.172 7.25781 108.43C7.38672 108.687 7.52734 108.922 7.6914 109.145C7.85547 109.367 7.96093 109.52 8.03125 109.59C8.10156 109.66 8.16015 109.719 8.18359 109.754L6.98828 109.754L7 112.156ZM8.91015 106.637C8.91015 106.004 9.0625 105.512 9.34375 105.137C9.63672 104.762 9.97656 104.586 10.3633 104.586C10.7734 104.586 11.1133 104.715 11.3828 104.984C11.6641 105.242 11.8398 105.594 11.9102 106.027L12.5078 109.754L12.2734 109.754C11.1953 109.754 10.375 109.473 9.78906 108.922C9.20312 108.371 8.91015 107.609 8.91015 106.637ZM18.5195 116.844L15.1562 116.844C13.5039 116.844 12.2266 116.738 11.3125 116.551C10.3984 116.363 9.8125 116.117 9.54297 115.836C9.28515 115.555 9.14453 115.168 9.14453 114.676C9.15625 114.441 9.20312 114.16 9.27343 113.844L6.98828 113.844L6.9414 114.055C6.89453 114.184 6.85937 114.371 6.8125 114.605C6.77734 114.84 6.7539 115.074 6.7539 115.285C6.7539 116.141 6.97656 116.844 7.39843 117.383C7.83203 117.922 8.6875 118.367 9.95312 118.719C11.2187 119.07 12.9531 119.234 15.1445 119.234L16.3516 119.234L16.3516 123.312L6.98828 123.312L6.98828 125.715L18.5078 125.715L18.5195 116.844ZM9.03906 131.492L12.8828 131.492L12.8828 134.129C12.8828 134.668 12.6953 135.125 12.332 135.5C11.957 135.863 11.5 136.051 10.9609 136.051C10.4102 136.051 9.95312 135.863 9.58984 135.5C9.21484 135.125 9.03906 134.668 9.03906 134.129L9.03906 131.492ZM10.9492 138.453C12.0977 138.453 13.0469 138.055 13.7969 137.258C14.5469 136.461 14.9219 135.418 14.9219 134.117L14.9219 131.48L18.5195 131.48L18.5195 129.078L7 129.078L7 134.117C7 135.418 7.36328 136.461 8.11328 137.258C8.85156 138.055 9.80078 138.453 10.9492 138.453ZM11.8047 143.492L11.8047 149.129L7 149.129L7 151.531L18.5195 151.531L18.5195 149.129L13.9609 149.129L13.9609 143.492L18.5195 143.492L18.5195 141.09L7 141.09L7 143.492L11.8047 143.492ZM9.03906 157.297L12.8828 157.297L12.8828 159.816C12.8828 160.355 12.6953 160.812 12.332 161.187C11.957 161.551 11.5 161.738 10.9609 161.738C10.4102 161.738 9.95312 161.551 9.58984 161.187C9.21484 160.812 9.03906 160.355 9.03906 159.816L9.03906 157.297ZM10.9492 164.141C12.0977 164.141 13.0469 163.742 13.7969 162.945C14.5469 162.148 14.9219 161.105 14.9219 159.805L14.9219 157.285L18.5195 157.285L18.5195 154.883L7 154.883L6.99999 159.805C6.99999 161.105 7.36328 162.148 8.11328 162.945C8.85156 163.742 9.80078 164.141 10.9492 164.141ZM18.5078 168.219L18.5078 165.816L6.98828 165.816L6.98828 168.219L18.5078 168.219ZM11.9219 182.258L13.1172 182.387C14.7344 182.387 16.0703 181.848 17.1484 180.77C18.2266 179.691 18.7656 178.355 18.7656 176.738C18.7656 175.121 18.1797 173.738 17.0312 172.59C15.8828 171.441 14.5 170.855 12.8828 170.855C11.1953 170.855 9.7539 171.453 8.55859 172.637C7.36328 173.82 6.76562 175.227 6.76562 176.855C6.76562 177.465 6.84765 178.062 7.02343 178.637C7.19921 179.211 7.38671 179.68 7.59765 180.031C7.80859 180.395 8.04296 180.734 8.31249 181.051C8.58203 181.379 8.76953 181.59 8.88671 181.684C9.0039 181.777 9.08593 181.848 9.15624 181.895L10.7148 180.336L10.2695 179.973C9.97656 179.738 9.68359 179.328 9.3789 178.742C9.07421 178.156 8.92187 177.535 8.92187 176.855C8.92187 175.93 9.21484 175.133 9.81249 174.453C10.3984 173.773 11.1016 173.375 11.9219 173.246L11.9219 182.258ZM16.7148 176.727C16.7148 177.617 16.457 178.344 15.9414 178.93C15.4258 179.516 14.7695 179.879 13.9609 180.02L13.9609 173.352C14.7695 173.562 15.4258 173.961 15.9414 174.547C16.457 175.133 16.7148 175.859 16.7148 176.727ZM12.7539 189.102C11.1367 189.102 9.74218 189.687 8.54687 190.883C7.35156 192.078 6.7539 193.484 6.7539 195.102C6.7539 195.652 6.84765 196.203 7.02343 196.754C7.19921 197.293 7.38671 197.738 7.59765 198.09C7.80859 198.43 8.04296 198.758 8.31249 199.074C8.58202 199.379 8.76952 199.59 8.88671 199.684C9.0039 199.777 9.08593 199.848 9.14452 199.895L10.7031 198.336L10.2578 197.973C9.97656 197.738 9.67187 197.352 9.36718 196.812C9.06249 196.273 8.91015 195.711 8.91015 195.102C8.91015 194.117 9.28515 193.273 10.0234 192.559C10.7734 191.844 11.6758 191.492 12.7539 191.492C13.832 191.492 14.7344 191.844 15.4726 192.559C16.2226 193.273 16.5859 194.117 16.5859 195.102C16.5859 195.711 16.4336 196.273 16.1172 196.812C15.8125 197.352 15.5664 197.691 15.3789 197.855C15.1914 198.02 15.0391 198.137 14.9101 198.219L16.4687 199.777L17.0195 199.273C17.4062 198.934 17.793 198.383 18.1797 197.609C18.5664 196.836 18.7539 195.992 18.7539 195.102C18.7539 193.484 18.1562 192.078 16.9609 190.883C15.7656 189.687 14.3711 189.102 12.7539 189.102ZM11.9219 212.961L13.1172 213.09C14.7344 213.09 16.0703 212.551 17.1484 211.473C18.2266 210.395 18.7656 209.059 18.7656 207.441C18.7656 205.824 18.1797 204.441 17.0312 203.293C15.8828 202.145 14.5 201.559 12.8828 201.559C11.1953 201.559 9.7539 202.156 8.55859 203.34C7.36327 204.523 6.76562 205.93 6.76562 207.559C6.76562 208.168 6.84765 208.766 7.02343 209.34C7.19921 209.914 7.38671 210.383 7.59765 210.734C7.80859 211.098 8.04296 211.437 8.31249 211.754C8.58202 212.082 8.76952 212.293 8.88671 212.387C9.0039 212.48 9.08593 212.551 9.15624 212.598L10.7148 211.039L10.2695 210.676C9.97656 210.441 9.68359 210.031 9.3789 209.445C9.07421 208.859 8.92187 208.238 8.92187 207.559C8.92187 206.633 9.21484 205.836 9.81249 205.156C10.3984 204.477 11.1016 204.078 11.9219 203.949L11.9219 212.961ZM16.7148 207.43C16.7148 208.32 16.457 209.047 15.9414 209.633C15.4258 210.219 14.7695 210.582 13.9609 210.723L13.9609 204.055C14.7695 204.266 15.4258 204.664 15.9414 205.25C16.457 205.836 16.7148 206.562 16.7148 207.43ZM16.3633 214.52L16.3633 218.48L6.99999 218.48L6.99999 220.871L16.3633 220.871L16.3633 224.832L18.5195 224.832L18.5195 214.52L16.3633 214.52ZM18.5195 235.391L10.9609 229.391L18.5195 229.391L18.5195 226.988L6.99999 226.988L6.99999 229.145L14.5586 235.145L6.99999 235.145L6.99999 237.547L18.5195 237.547L18.5195 235.391ZM8.31249 240.547C7.89062 240.547 7.52734 240.699 7.22265 241.016C6.91796 241.32 6.76562 241.684 6.76562 242.105C6.76562 242.527 6.91796 242.891 7.22265 243.207C7.52733 243.512 7.89062 243.676 8.31249 243.676C8.73437 243.676 9.09765 243.512 9.41405 243.207C9.71874 242.891 9.8828 242.527 9.8828 242.105C9.8828 241.684 9.71874 241.32 9.41405 241.016C9.09765 240.699 8.73437 240.547 8.31249 240.547ZM17.1953 240.547C16.7734 240.547 16.4101 240.699 16.0937 241.016C15.7891 241.32 15.625 241.684 15.625 242.105C15.625 242.527 15.7891 242.891 16.0937 243.207C16.4101 243.512 16.7734 243.676 17.1953 243.676C17.6172 243.676 17.9805 243.512 18.2969 243.207C18.6016 242.891 18.7656 242.527 18.7656 242.105C18.7656 241.684 18.6016 241.32 18.2969 241.016C17.9805 240.699 17.6172 240.547 17.1953 240.547Z" fill="#2F7DC5"/>
<g clip-path="url(#clip0_386_2933)">
<path d="M19 280.667L14.3333 285.333L21.3333 292.333L26 273.667L5 281.833L9.66667 284.167L12 291.167L15.5 286.5" stroke="#2F7DC5" stroke-width="2" stroke-linecap="round" stroke-linejoin="round"/>
</g>
<g clip-path="url(#clip1_386_2933)">
<path d="M20.1665 317.667H10.8332C8.25584 317.667 6.1665 319.756 6.1665 322.333V331.667C6.1665 334.244 8.25584 336.333 10.8332 336.333H20.1665C22.7438 336.333 24.8332 334.244 24.8332 331.667V322.333C24.8332 319.756 22.7438 317.667 20.1665 317.667Z" stroke="#2F7DC5" stroke-width="2" stroke-linecap="round" stroke-linejoin="round"/>
<path d="M15.5 330.5C17.433 330.5 19 328.933 19 327C19 325.067 17.433 323.5 15.5 323.5C13.567 323.5 12 325.067 12 327C12 328.933 13.567 330.5 15.5 330.5Z" stroke="#2F7DC5" stroke-width="2" stroke-linecap="round" stroke-linejoin="round"/>
<path d="M20.75 321.75V321.751" stroke="#2F7DC5" stroke-width="2" stroke-linecap="round" stroke-linejoin="round"/>
</g>
<g clip-path="url(#clip2_386_2933)">
<path d="M21.3333 362.833H9.66667C7.08934 362.833 5 364.923 5 367.5V374.5C5 377.077 7.08934 379.167 9.66667 379.167H21.3333C23.9107 379.167 26 377.077 26 374.5V367.5C26 364.923 23.9107 362.833 21.3333 362.833Z" stroke="#2F7DC5" stroke-width="2" stroke-linecap="round" stroke-linejoin="round"/>
<path d="M13.1665 367.5L18.9998 371L13.1665 374.5V367.5Z" stroke="#2F7DC5" stroke-width="2" stroke-linecap="round" stroke-linejoin="round"/>
</g>
<defs>
<clipPath id="clip0_386_2933">
<rect width="28" height="28" fill="white" transform="translate(1.5 269)"/>
</clipPath>
<clipPath id="clip1_386_2933">
<rect width="28" height="28" fill="white" transform="translate(1.5 313)"/>
</clipPath>
<clipPath id="clip2_386_2933">
<rect width="28" height="28" fill="white" transform="translate(1.5 357)"/>
</clipPath>
</defs>
</svg>
